<svg xmlns="http://www.w3.org/2000/svg" viewBox="0 0 48 48" fill="none">
  <defs>
    <linearGradient id="iconGrad" x1="0%" y1="0%" x2="100%" y2="100%">
      <stop offset="0%" stop-color="#7C3AED"/>
      <stop offset="50%" stop-color="#6D28D9"/>
      <stop offset="100%" stop-color="#4F46E5"/>
    </linearGradient>
    <linearGradient id="iconGlow" x1="0%" y1="0%" x2="100%" y2="100%">
      <stop offset="0%" stop-color="#A78BFA"/>
      <stop offset="100%" stop-color="#818CF8"/>
    </linearGradient>
  </defs>
  <!-- Cap brim -->
  <path d="M24 12 L44 24 L24 36 L4 24 Z" fill="url(#iconGrad)" opacity="0.9"/>
  <!-- Cap top -->
  <rect x="18" y="6" width="12" height="10" rx="2" fill="url(#iconGrad)"/>
  <!-- Tassel -->
  <line x1="24" y1="10" x2="38" y2="4" stroke="url(#iconGlow)" stroke-width="2.5" stroke-linecap="round"/>
  <circle cx="38" cy="4" r="3" fill="#A78BFA"/>
  <!-- Neural nodes -->
  <circle cx="12" cy="24" r="2.5" fill="white" opacity="0.9"/>
  <circle cx="24" cy="24" r="3" fill="white"/>
  <circle cx="36" cy="24" r="2.5" fill="white" opacity="0.9"/>
  <circle cx="18" cy="16" r="2" fill="white" opacity="0.7"/>
  <circle cx="30" cy="16" r="2" fill="white" opacity="0.7"/>
  <!-- Neural connections -->
  <line x1="12" y1="24" x2="24" y2="24" stroke="white" stroke-width="1.2" opacity="0.5"/>
  <line x1="24" y1="24" x2="36" y2="24" stroke="white" stroke-width="1.2" opacity="0.5"/>
  <line x1="18" y1="16" x2="12" y2="24" stroke="white" stroke-width="1" opacity="0.4"/>
  <line x1="18" y1="16" x2="24" y2="24" stroke="white" stroke-width="1" opacity="0.4"/>
  <line x1="30" y1="16" x2="24" y2="24" stroke="white" stroke-width="1" opacity="0.4"/>
  <line x1="30" y1="16" x2="36" y2="24" stroke="white" stroke-width="1" opacity="0.4"/>
  <!-- AI sparkle -->
  <path d="M38 32 L40 28 L42 32 L46 34 L42 36 L40 40 L38 36 L34 34 Z" fill="url(#iconGlow)" opacity="0.85"/>
</svg>
